<?xml version="1.0" standalone="no"?>
<svg xmlns:xlink="http://www.w3.org/1999/xlink" id="wave" style="transform:rotate(180deg); transition: 0.3s" viewBox="0 0 1440 490" version="1.1" xmlns="http://www.w3.org/2000/svg"><defs><linearGradient id="sw-gradient-0" x1="0" x2="0" y1="1" y2="0"><stop stop-color="rgba(255, 249.494, 237.074, 1)" offset="0%"/><stop stop-color="rgba(255, 175.574, 0, 1)" offset="100%"/></linearGradient></defs><path style="transform:translate(0, 0px); opacity:1" fill="url(#sw-gradient-0)" d="M0,49L34.3,40.8C68.6,33,137,16,206,24.5C274.3,33,343,65,411,81.7C480,98,549,98,617,81.7C685.7,65,754,33,823,40.8C891.4,49,960,98,1029,155.2C1097.1,212,1166,278,1234,302.2C1302.9,327,1371,310,1440,318.5C1508.6,327,1577,359,1646,367.5C1714.3,376,1783,359,1851,367.5C1920,376,1989,408,2057,416.5C2125.7,425,2194,408,2263,375.7C2331.4,343,2400,294,2469,261.3C2537.1,229,2606,212,2674,245C2742.9,278,2811,359,2880,375.7C2948.6,392,3017,343,3086,334.8C3154.3,327,3223,359,3291,318.5C3360,278,3429,163,3497,171.5C3565.7,180,3634,310,3703,375.7C3771.4,441,3840,441,3909,432.8C3977.1,425,4046,408,4114,392C4182.9,376,4251,359,4320,302.2C4388.6,245,4457,147,4526,163.3C4594.3,180,4663,310,4731,302.2C4800,294,4869,147,4903,73.5L4937.1,0L4937.1,490L4902.9,490C4868.6,490,4800,490,4731,490C4662.9,490,4594,490,4526,490C4457.1,490,4389,490,4320,490C4251.4,490,4183,490,4114,490C4045.7,490,3977,490,3909,490C3840,490,3771,490,3703,490C3634.3,490,3566,490,3497,490C3428.6,490,3360,490,3291,490C3222.9,490,3154,490,3086,490C3017.1,490,2949,490,2880,490C2811.4,490,2743,490,2674,490C2605.7,490,2537,490,2469,490C2400,490,2331,490,2263,490C2194.3,490,2126,490,2057,490C1988.6,490,1920,490,1851,490C1782.9,490,1714,490,1646,490C1577.1,490,1509,490,1440,490C1371.4,490,1303,490,1234,490C1165.7,490,1097,490,1029,490C960,490,891,490,823,490C754.3,490,686,490,617,490C548.6,490,480,490,411,490C342.9,490,274,490,206,490C137.1,490,69,490,34,490L0,490Z"/></svg>